<svg xmlns="http://www.w3.org/2000/svg" viewBox="0 0 726.62 110.77"><title>Asset 1</title><g id="Layer_2" data-name="Layer 2"><g id="Layer_1-2" data-name="Layer 1"><path d="M3.09,95.26C1,95.26,0,95.12,0,94.83s.24-.39.72-.59l1.72-.65q8-2.84,8-17.51V16.71Q10.4,5.52,5.13,2.4L4.28,2C4,1.82,3.73,1.7,3.55,1.6q-.72-.51-.72-1C2.83.19,3.47,0,4.74,0H49.49Q71.21,0,85.23,12.93,99.59,26.16,99.58,47.38A48.44,48.44,0,0,1,88,79.2,43.14,43.14,0,0,1,73.32,90.76a46.87,46.87,0,0,1-20.6,4.5ZM26,79.78q0,6.25,3.29,8.87,3.62,2.91,12.64,2.91,21.45,0,31-12.43,8.61-11.19,8.62-33.86Q81.55,3.7,46.2,3.71H26Z"/><path d="M141.38,86.37q0,5.17,2.83,6.59l.53.25c.16.06.23.14.23.25s-.34.34-1,.34h-8.46a26.9,26.9,0,0,1-1.87-8.73h-.15q-4.41,10-14.5,10a18.52,18.52,0,0,1-11.33-3.34q-5.2-3.84-5.2-10.94a10.88,10.88,0,0,1,3-7.73,17.83,17.83,0,0,1,7.12-4.3,42.07,42.07,0,0,1,8.72-1.88c1.3-.14,2.67-.23,4.1-.29,1.12-.06,2.28-.08,3.48-.08h4.47V63.69q0-6.44-2.75-10.11-3-3.93-8.69-3.93-10.56,0-14.27,9.86l-.3.79c0,.09-.06.16-.08.21-.1.31-.18.46-.23.46s-.2-.32-.38-1l-2.07-7.68a31,31,0,0,1,9.07-3.55,48.62,48.62,0,0,1,9.45-.76q7.65,0,12.51,3.14,5.82,3.72,5.82,11.15ZM133.3,68.16h-4.63a30.49,30.49,0,0,0-6.23.58,17,17,0,0,0-5.51,2.17q-5.4,3.51-5.4,11.24a11.25,11.25,0,0,0,2.76,7.77,9,9,0,0,0,7,3q6.27,0,9.49-6.34a23.75,23.75,0,0,0,2-6.1,34.68,34.68,0,0,0,.57-6.39Z"/><path d="M172.48,96.93q-1.14,2.17-2.22,4a25.41,25.41,0,0,1-5.39,6.51q-4.37,3.6-12.05,3.34l2.79-8.64c.13-.42.24-.63.34-.63s.23.13.23.38a4.14,4.14,0,0,0,2.38,2.42,8.31,8.31,0,0,0,3.33.63,6.71,6.71,0,0,0,5.81-3.38,12.7,12.7,0,0,0,2-7.06,19.87,19.87,0,0,0-1.45-6.23l-2.53-6c0-.06,0-.13-.07-.21L153.81,56.25a31,31,0,0,0-2-3.63,9.48,9.48,0,0,0-3.1-2.8c-.25-.17-.38-.33-.38-.5s.37-.33,1.11-.33l7.58.33,7.3-.33q1.08,0,1.08.33c0,.19-.16.33-.46.42l-1.07.42a3.4,3.4,0,0,0-1,.58,3.5,3.5,0,0,0-1,2.76,13.53,13.53,0,0,0,.92,4,26.62,26.62,0,0,0,1.53,3.55L176,84.57,183,70c1.5-3.28,2.64-6,3.4-8.18a21.08,21.08,0,0,0,1.46-6.39c0-2.7-1.18-4.43-3.52-5.18a1,1,0,0,1-.69-.88c0-.22.3-.33.92-.33l2.14.16c.61.06,1.21.1,1.8.13.74,0,1.49,0,2.25,0s1.48,0,2.22,0c.56,0,1.15-.07,1.76-.13l2.07-.16c.61,0,.92.11.92.33a.7.7,0,0,1-.38.58c-1.18.9-2.77,3-4.79,6.19a69.23,69.23,0,0,0-4,7.1Z"/><path d="M235.62,57.71c-.29.67-.53,1-.73,1s-.46-.23-.54-.67a8.66,8.66,0,0,0-4.21-6,14.9,14.9,0,0,0-8.49-2.43,12.55,12.55,0,0,0-8,2.38c-2.32,1.81-3.48,4.45-3.48,7.9q0,4.09,4.32,6A17.89,17.89,0,0,0,219,67.2c1.45.25,3.2.44,5.24.58q16,1.13,16,12.15a12.91,12.91,0,0,1-2.18,7.52,14.08,14.08,0,0,1-5.43,4.64,26,26,0,0,1-7.12,2.34,37.49,37.49,0,0,1-7.15.66,48.42,48.42,0,0,1-18.48-3.42l1.64-7.1c.26-1.09.49-1.63.69-1.63s.4.25.5.75q.84,4.59,6.5,7.44a21.46,21.46,0,0,0,9.65,2.33,17.35,17.35,0,0,0,9-2.17,8.85,8.85,0,0,0,4.51-8.1q0-4.51-3.48-6.22a16.14,16.14,0,0,0-4.36-1.26q-2-.37-6.05-.75a34.41,34.41,0,0,1-5.43-.92,19.22,19.22,0,0,1-5.24-2,10.47,10.47,0,0,1-5.44-9.61,13,13,0,0,1,2-7.22,13.51,13.51,0,0,1,5.09-4.39,24.08,24.08,0,0,1,6.7-2.17A38,38,0,0,1,223,48a35.65,35.65,0,0,1,14.58,3.26Z"/><path d="M249.16,42.14c0-4.07-.86-6.24-2.56-6.52l-.46,0-.39-.08q-.42-.14-.42-.3c0-.14.13-.26.39-.37l.95-.21q5.75-1.42,10.56-2.84V59.84h.16Q260.4,48,272.5,48q7.19,0,11.59,4.14,5.13,4.85,5.13,14.37V83q-.12,5.73.65,7.81a4,4,0,0,0,2.49,2.38c.66.2,1,.39,1,.59s-.39.25-1.18.25l-7-.25q-2.53,0-5.25.12a9,9,0,0,1-.95,0l-1.88.08c-.56,0-.84-.08-.84-.25s.23-.45.69-.5q4.25-.54,4.25-10.28V66.44a21.42,21.42,0,0,0-2.64-11.11,9.82,9.82,0,0,0-8.88-5.13q-6.54,0-9.72,6.68-2.67,5.76-2.68,15.7V83a27.14,27.14,0,0,0,.58,6.81,4.1,4.1,0,0,0,3.17,3.3c.59.08.88.25.88.5s-.24.42-.72.42L259.49,94c-.33,0-.65,0-1,0-1.86-.08-3.64-.12-5.35-.12s-3.6,0-5.59.12c-.33,0-.67,0-1,0l-1.8.08q-.69,0-.69-.42c0-.25.29-.42.88-.5a4.4,4.4,0,0,0,3.56-3.3,24.8,24.8,0,0,0,.65-6.81Z"/><path d="M306.05,65.57c-.15,2-.22,3.82-.22,5.55q0,11.11,4.7,16.87a12.75,12.75,0,0,0,10.41,5,16.33,16.33,0,0,0,11.55-4.63,25,25,0,0,0,6.78-12.16h1.64q-4,18.93-21,18.92a22.26,22.26,0,0,1-16.57-6.64q-6.63-6.63-6.62-16.87t6.62-16.91A22.27,22.27,0,0,1,319.91,48a20.45,20.45,0,0,1,12.77,4.31,18,18,0,0,1,7.2,13.24Zm24-1.63q0-6.55-2.84-10.28-3.09-4-9-4A9.91,9.91,0,0,0,309.92,54a20.27,20.27,0,0,0-3.56,9.9Z"/><path d="M355.41,65.57c-.15,2-.23,3.82-.23,5.55q0,11.11,4.71,16.87a12.75,12.75,0,0,0,10.41,5,16.33,16.33,0,0,0,11.55-4.63,25,25,0,0,0,6.77-12.16h1.65q-4,18.93-21,18.92a22.25,22.25,0,0,1-16.56-6.64q-6.63-6.63-6.62-16.87t6.62-16.91A22.26,22.26,0,0,1,369.26,48,20.48,20.48,0,0,1,382,52.33a18,18,0,0,1,7.19,13.24Zm23.95-1.63q0-6.55-2.83-10.28-3.09-4-9-4A9.89,9.89,0,0,0,359.28,54a20.17,20.17,0,0,0-3.56,9.9Z"/><path d="M464.74,90.48l.07,1.51q0,.51-1.35.51c-.41,0-1.13-.49-2.16-1.45a2.12,2.12,0,0,0-1-.44,6.15,6.15,0,0,0-2.36,1.07,26.58,26.58,0,0,1-14.06,3.9A24.22,24.22,0,0,1,426.49,89a21.47,21.47,0,0,1-7-16.19,24.26,24.26,0,0,1,24.4-24.18,23.82,23.82,0,0,1,12.16,3.21,11.88,11.88,0,0,1,1.35.88,4.08,4.08,0,0,0,1.36.69,1.15,1.15,0,0,0,.74-.37L461,51.68a3,3,0,0,1,1.83-.38q.54,0,.54.51l-.07,4.79a43.82,43.82,0,0,0,.34,6.48l.14,1.07q0,.51-1.08.51a1,1,0,0,1-1.15-.82c-.46-1.18-.81-2.06-1.09-2.65a23,23,0,0,0-2.23-3.9,15.17,15.17,0,0,0-6.75-5,19.15,19.15,0,0,0-7-1.38,16.17,16.17,0,0,0-11.22,4.34q-5.69,5.15-5.68,15.09,0,9.49,4.33,15.6,4.8,6.78,13.72,6.79a16.52,16.52,0,0,0,10.88-3.7q4-3.33,6.08-11.86c0-.38.43-.57,1.15-.57s1,.21,1,.63l-.07,3.53-.06,5.86C464.61,87.06,464.65,88.34,464.74,90.48Z"/><path d="M488.06,66.23a16.67,16.67,0,0,1,8.85,1.89,13.55,13.55,0,0,1,5.37,5.25,14,14,0,0,1,2,7.13q0,8.86-7,12.5a17.45,17.45,0,0,1-8.31,2.08q-7.31,0-11.63-4.46a13.87,13.87,0,0,1-3.92-10.06,13.34,13.34,0,0,1,4.26-10.12A16,16,0,0,1,488.06,66.23ZM488.6,68a8.34,8.34,0,0,0-6.42,3.33q-2.7,3.45-2.7,9.29,0,6.22,3,9.68a8,8,0,0,0,6.28,3,8.13,8.13,0,0,0,6.56-3.14q2.89-3.45,2.9-9.49,0-5.84-2.73-9.33A8,8,0,0,0,488.6,68Z"/><path d="M512.18,93.19V85.76q0-.63.6-.63a4.57,4.57,0,0,1,1.38.12c.17.09.3.34.39.76a22.49,22.49,0,0,0,1.22,4,4.41,4.41,0,0,0,2.33,2.12,8.52,8.52,0,0,0,3.61.8,6.3,6.3,0,0,0,3.72-1.14,4.22,4.22,0,0,0,1.89-3.66q0-3.23-5.2-5.37A29.24,29.24,0,0,1,516,79.55a7.23,7.23,0,0,1-2.84-5.81,6.63,6.63,0,0,1,2.7-5.62,9.11,9.11,0,0,1,5.75-1.83,13.76,13.76,0,0,1,3.85.57c1.13.34,1.71.51,1.76.51a2.42,2.42,0,0,0,1.35-.63.64.64,0,0,1,.47-.19q1,0,1,.69v2.64c0,.21,0,.91.06,2.08s.07,1.85.07,2-.16.42-.47.5c-1.08,0-1.67-.16-1.76-.5-1.26-3.86-3.31-5.8-6.15-5.8a4.23,4.23,0,0,0-2.77.95A3.52,3.52,0,0,0,517.66,72a4,4,0,0,0,2.09,3.66c1.9.8,4.1,1.76,6.63,2.9q5.4,2.4,5.4,7.32a8.75,8.75,0,0,1-2.7,6.54,9.67,9.67,0,0,1-7,2.62,15,15,0,0,1-4.86-.79,6.2,6.2,0,0,1-1.12-.39,5.14,5.14,0,0,0-1.18-.4,13.14,13.14,0,0,0-2.5.7C512.25,94.2,512.18,93.86,512.18,93.19Z"/><path d="M539.42,70.58l.07-1.2c0-.17.16-.34.47-.5a35.83,35.83,0,0,0,4-.7q5.79-1.26,5-1.26c.14,0,.23.11.27.32a33.48,33.48,0,0,1,.54,3.9q5.26-4.4,10.65-4.4A8.84,8.84,0,0,1,568.27,71a15.57,15.57,0,0,1,10.91-4.28,9,9,0,0,1,6.88,2.82c1.26,1.34,1.88,3.73,1.88,7.17V88.29c0,1.67.32,2.72.95,3.14.45.34,1.74.61,3.85.82.36,0,.54.21.54.5.05,1.09-.13,1.63-.54,1.63-1.75-.16-4.43-.25-8-.25-.72,0-1.82,0-3.31.13s-2.61.12-3.38.12c-.41,0-.61-.16-.61-.5a8.43,8.43,0,0,1,.07-1.48c0-.19.22-.28.54-.28,2.61-.17,4.08-.74,4.39-1.7a45.77,45.77,0,0,0,.27-7.16q0-4.71-.06-6.78-.21-7.16-6.15-7.16A7.78,7.78,0,0,0,571.39,71a6.09,6.09,0,0,0-2.16,3.15,61.8,61.8,0,0,0-.28,8.41,67.14,67.14,0,0,0,.21,7.79,1.82,1.82,0,0,0,1.28,1.39,15.91,15.91,0,0,0,3.11.5c.41,0,.63.17.68.5,0,1.09-.21,1.63-.61,1.63-4.6-.16-7-.25-7.37-.25-.81,0-2,0-3.65.13s-2.84.12-3.65.12a.59.59,0,0,1-.61-.5c0-1.09.21-1.65.61-1.69l1.22-.13c1.76-.17,2.78-.65,3.07-1.44s.44-3.4.44-7.79c0-5.83-.29-9.28-.88-10.37a5.53,5.53,0,0,0-5.33-2.89,7.86,7.86,0,0,0-5.34,2,5.52,5.52,0,0,0-1.9,3,16.52,16.52,0,0,0-.27,3.58V88.17c0,1.67.27,2.72.81,3.14s1.85.73,3.92.94a.52.52,0,0,1,.54.56c0,1-.15,1.57-.47,1.57-2-.16-4.68-.25-8.11-.25-.94,0-2.21,0-3.78.13l-2.64.12c-.54,0-.81-.16-.81-.5,0-1.09.2-1.66.61-1.7a9.86,9.86,0,0,0,3.41-.63,2.39,2.39,0,0,0,1-1.7,74.51,74.51,0,0,0,.2-7.68q0-7-.2-8.82c-.18-1.77-1.33-2.58-3.45-2.46l-1.15.07C539.71,71,539.56,70.83,539.42,70.58Z"/><path d="M623.49,76.37v.06q-7.9,0-18.79.13a21.59,21.59,0,0,0-.2,2.76,12.59,12.59,0,0,0,3,8.72,9.47,9.47,0,0,0,7.3,3.38A12.8,12.8,0,0,0,623.42,88c.27-.45.55-.68.82-.68s.33.12.6.37.41.42.41.5c0,.25-.47.9-1.42,1.94a14.1,14.1,0,0,1-4.19,3.25,14.78,14.78,0,0,1-7.1,1.75,13.51,13.51,0,0,1-9.66-3.58,13,13,0,0,1-4.06-9.93q0-7.11,4.4-11.32a13.62,13.62,0,0,1,9.8-3.83,12.07,12.07,0,0,1,8.24,2.71,6.75,6.75,0,0,1,2.64,5.1A6.36,6.36,0,0,1,623.49,76.37Zm-18.24-1.64h6.55q3.45,0,6.69-.25c0-2.64-.88-4.39-2.63-5.23a6.53,6.53,0,0,0-2.84-.56,7.36,7.36,0,0,0-5.21,2.1A9.86,9.86,0,0,0,605.25,74.73Z"/><path d="M639.78,60.81v7.31h7.77c.41,0,.63.17.68.52,0,1.08-.21,1.62-.62,1.62h-7.9q-.33,9.58-.34,12.73a18.92,18.92,0,0,0,.55,5.54,3.8,3.8,0,0,0,3.94,2.71,8,8,0,0,0,4-1.45,1,1,0,0,1,.61-.32,1.07,1.07,0,0,1,.65.35.92.92,0,0,1,.37.6c0,.54-.7,1.34-2.09,2.39a10.47,10.47,0,0,1-6.29,2c-3.11,0-5.2-1.1-6.28-3.28a14.32,14.32,0,0,1-.88-5.86q0-2.89.47-15.43h-2c-.49,0-.74-.17-.74-.5,0-.92.25-1.49.74-1.7,1.9-1,3.65-3,5.27-6a10.31,10.31,0,0,1,.75-1.26,1.37,1.37,0,0,1,1.15-.44C639.71,60.37,639.78,60.52,639.78,60.81Z"/><path d="M664.51,66.8l-.13,2.33q-.21,3.54-.2,12.88a69.7,69.7,0,0,0,.2,7.64c.27,1.26,1.28,2.06,3,2.4,1.22.21,1.85.46,1.89.76,0,1-.13,1.57-.4,1.57-3.25-.21-5.61-.31-7.1-.31q-2.77,0-7.43.31c-.41.05-.64-.12-.68-.5,0-1,.18-1.53.54-1.57,2.25-.26,3.61-.78,4.06-1.58s.67-3.23.67-7.3q0-8.7-.2-10.65a2.22,2.22,0,0,0-1.56-2.14,18.22,18.22,0,0,0-3-.06c-.4,0-.61-.3-.61-.88s.23-1,.68-1.08c1.53-.21,3.31-.56,5.34-1l4.46-1.17C664.38,66.42,664.51,66.55,664.51,66.8Zm-6-11.4a3.23,3.23,0,0,1-1.08-2.46,3.19,3.19,0,0,1,1.11-2.45,3.73,3.73,0,0,1,2.6-1,3.69,3.69,0,0,1,2.64,1,3.33,3.33,0,0,1,0,4.91,3.94,3.94,0,0,1-5.27,0Z"/><path d="M700.06,87.65c.18-.17.32-.26.41-.26a1.45,1.45,0,0,1,.64.32c.29.21.44.38.44.5,0,.72-1.08,1.93-3.25,3.66a14.42,14.42,0,0,1-9.19,3.33q-6.75,0-10.67-4.33a12.15,12.15,0,0,1-3.32-8.42,15.21,15.21,0,0,1,5.14-11.88,15.67,15.67,0,0,1,10.88-4.15,12.87,12.87,0,0,1,5.64,1.25c1.74.83,2.61,1.91,2.61,3.25a2.24,2.24,0,0,1-.85,1.77,2.89,2.89,0,0,1-1.93.72,2.94,2.94,0,0,1-2.7-1.86,11.14,11.14,0,0,0-.74-1.43,3.63,3.63,0,0,0-3.38-1.56,7.71,7.71,0,0,0-6.15,2.89A12.67,12.67,0,0,0,681,79.87q0,5.66,3.38,8.85a9.55,9.55,0,0,0,6.9,2.83Q695.8,91.55,700.06,87.65Z"/><path d="M707,93.19V85.76c0-.42.2-.63.59-.63a4.48,4.48,0,0,1,1.38.12c.18.09.31.34.4.76a23.68,23.68,0,0,0,1.21,4,4.47,4.47,0,0,0,2.34,2.12,8.49,8.49,0,0,0,3.61.8,6.3,6.3,0,0,0,3.72-1.14,4.22,4.22,0,0,0,1.89-3.66q0-3.23-5.2-5.37a29,29,0,0,1-6.15-3.22A7.2,7.2,0,0,1,708,73.74a6.63,6.63,0,0,1,2.7-5.62,9.11,9.11,0,0,1,5.75-1.83,13.76,13.76,0,0,1,3.85.57c1.12.34,1.71.51,1.75.51a2.41,2.41,0,0,0,1.36-.63.64.64,0,0,1,.47-.19c.68,0,1,.23,1,.69v2.64c0,.21,0,.91.07,2.08s.07,1.85.07,2-.16.42-.47.5c-1.09,0-1.67-.16-1.76-.5-1.26-3.86-3.31-5.8-6.15-5.8a4.21,4.21,0,0,0-2.77.95A3.52,3.52,0,0,0,712.5,72a4,4,0,0,0,2.09,3.66c1.89.8,4.1,1.76,6.62,2.9q5.41,2.4,5.41,7.32a8.75,8.75,0,0,1-2.7,6.54,9.68,9.68,0,0,1-7,2.62,15.07,15.07,0,0,1-4.87-.79,6.56,6.56,0,0,1-1.11-.39,5.31,5.31,0,0,0-1.18-.4,12.94,12.94,0,0,0-2.5.7C707.09,94.2,707,93.86,707,93.19Z"/></g></g></svg>